<?xml version="1.0" standalone="no"?>
<!DOCTYPE svg PUBLIC "-//W3C//DTD SVG 20010904//EN"
 "http://www.w3.org/TR/2001/REC-SVG-20010904/DTD/svg10.dtd">
<svg version="1.0" xmlns="http://www.w3.org/2000/svg"
 width="127.000000pt" height="169.000000pt" viewBox="0 0 127.000000 169.000000"
 preserveAspectRatio="xMidYMid meet">

<g transform="translate(0.000000,169.000000) scale(0.100000,-0.100000)"
fill="#000000" stroke="none">
<path d="M200 1685 c0 -2 17 -38 37 -80 l37 -75 56 0 c47 0 62 -5 105 -35 75
-53 172 -153 195 -200 22 -45 26 -99 10 -141 -6 -15 -34 -54 -62 -88 -28 -33
-64 -89 -79 -123 l-28 -63 -236 0 -235 0 0 -30 0 -30 238 0 238 0 23 -56 c13
-30 43 -79 68 -107 110 -128 111 -200 2 -325 -24 -29 -73 -74 -109 -101 -59
-45 -71 -50 -125 -53 l-59 -3 -42 -82 -43 -82 72 4 c40 2 81 4 93 4 14 1 29
16 47 50 19 34 43 59 80 82 56 36 184 135 205 159 44 50 92 137 98 176 9 61
-9 103 -84 200 -68 88 -86 133 -56 135 11 1 93 1 184 -1 161 -2 166 -3 211
-30 l46 -28 77 45 c86 51 88 43 -18 103 l-59 33 -58 -32 -57 -31 -169 2 -168
3 2 28 c1 16 21 53 45 84 115 146 129 195 83 290 -36 73 -133 170 -247 245
-69 46 -92 68 -114 108 l-27 50 -89 0 c-48 0 -88 -2 -88 -5z m140 -75 c0 -5
-4 -10 -9 -10 -6 0 -13 5 -16 10 -3 6 1 10 9 10 9 0 16 -4 16 -10z m769 -749
c11 -7 9 -10 -8 -16 -24 -7 -44 2 -36 16 8 11 26 11 44 0z m-769 -766 c0 -8
-7 -15 -15 -15 -16 0 -20 12 -8 23 11 12 23 8 23 -8z"/>
</g>
</svg>
